<svg xmlns="http://www.w3.org/2000/svg" viewBox="0 0 454.56 350.64"><defs><style>.cls-1{fill:#fff;}</style></defs><title>Asset 3</title><g id="Layer_2" data-name="Layer 2"><g id="Layer_1-2" data-name="Layer 1"><path class="cls-1" d="M153.37,341.7c0-4.94,5.48-8.93,12.24-8.93H289c6.76,0,12.24,4,12.24,8.93s-5.48,8.93-12.24,8.93H165.61C158.84,350.64,153.37,346.64,153.37,341.7Z"/><path class="cls-1" d="M421.9,0H32.66A32.66,32.66,0,0,0,0,32.66V288.52a32.66,32.66,0,0,0,32.66,32.67H421.9a32.66,32.66,0,0,0,32.66-32.67V32.66A32.66,32.66,0,0,0,421.9,0ZM406.74,308.94H46.39a30.22,30.22,0,0,1-30.24-30.2V42.19A30.22,30.22,0,0,1,46.39,12H406.74A30.22,30.22,0,0,1,437,42.19V278.74A30.22,30.22,0,0,1,406.74,308.94Z"/><path class="cls-1" d="M109.32,92.2H96.94a1.32,1.32,0,0,1-1.31-.82l-1.86-6.56H82l-1.89,6.56a1.32,1.32,0,0,1-1.31.82H66.47a.63.63,0,0,1-.44-.15.51.51,0,0,1-.17-.4,1,1,0,0,1,0-.28L80,49.93a1.46,1.46,0,0,1,1.49-.82H94.26a1.46,1.46,0,0,1,1.49.82l14.12,41.45.06.24a.56.56,0,0,1-.17.41A.6.6,0,0,1,109.32,92.2ZM84.53,75.89h6.74L87.88,64Z"/><path class="cls-1" d="M110.18,62.1a13.54,13.54,0,0,1,2-7.29,13.06,13.06,0,0,1,5.55-4.91A18.78,18.78,0,0,1,126,48.16a23.59,23.59,0,0,1,7.2,1.25,26.09,26.09,0,0,1,6.8,3.26c.41.24.61.5.61.76a.53.53,0,0,1-.12.34l-3.94,8.81c-.14.45-.35.67-.64.67a.81.81,0,0,1-.49-.15q-5.15-3-8.78-3.26a4.15,4.15,0,0,0-2.32.64,1.8,1.8,0,0,0-.88,1.52q0,1.62,4.57,3.14a30,30,0,0,1,8.51,4.39,10.74,10.74,0,0,1,3.34,4.07,12.83,12.83,0,0,1,1.27,5.72,13.11,13.11,0,0,1-2,7.23,13.27,13.27,0,0,1-5.66,4.86,19.44,19.44,0,0,1-8.4,1.73A27.19,27.19,0,0,1,117.28,92a17.43,17.43,0,0,1-6.1-3c-.41-.3-.61-.59-.61-.85a.45.45,0,0,1,.09-.27l3.94-8.82c.14-.45.36-.67.64-.67a.92.92,0,0,1,.49.18,21.63,21.63,0,0,0,8.69,3,4,4,0,0,0,2.38-.66,1.92,1.92,0,0,0,.91-1.6q-.06-1.62-4.61-3.2a30.67,30.67,0,0,1-8.39-4.36,11.33,11.33,0,0,1-3.28-4.07A12.39,12.39,0,0,1,110.18,62.1Z"/><path class="cls-1" d="M151.68,62.1a13.54,13.54,0,0,1,2-7.29,13.06,13.06,0,0,1,5.55-4.91,18.78,18.78,0,0,1,8.28-1.74,23.59,23.59,0,0,1,7.2,1.25,26.09,26.09,0,0,1,6.8,3.26c.41.24.61.5.61.76a.53.53,0,0,1-.12.34L178,62.59c-.14.45-.35.67-.64.67a.81.81,0,0,1-.49-.15q-5.15-3-8.78-3.26a4.15,4.15,0,0,0-2.32.64,1.8,1.8,0,0,0-.88,1.52q0,1.62,4.57,3.14A30,30,0,0,1,178,69.54a10.74,10.74,0,0,1,3.34,4.07,12.83,12.83,0,0,1,1.27,5.72,13.11,13.11,0,0,1-2,7.23,13.27,13.27,0,0,1-5.66,4.86,19.44,19.44,0,0,1-8.4,1.73A27.19,27.19,0,0,1,158.79,92a17.43,17.43,0,0,1-6.1-3q-.61-.46-.61-.85a.45.45,0,0,1,.09-.27l3.94-8.82c.14-.45.36-.67.64-.67a.92.92,0,0,1,.49.18,21.63,21.63,0,0,0,8.69,3,4,4,0,0,0,2.38-.66,1.92,1.92,0,0,0,.91-1.6q-.06-1.62-4.61-3.2a30.67,30.67,0,0,1-8.39-4.36A11.33,11.33,0,0,1,153,67.7,12.39,12.39,0,0,1,151.68,62.1Z"/><path class="cls-1" d="M199,75.64V81H216q1,0,.91.82v9.55a.86.86,0,0,1-.27.59.85.85,0,0,1-.64.29H186.94c-.51,0-.83-.31-1-.95V50a.77.77,0,0,1,.85-.88h28.43a1,1,0,0,1,.72.26.81.81,0,0,1,.29.62v9.42q0,.95-1,.95H199v4.91H212.2a.8.8,0,0,1,.61.26.61.61,0,0,1,.18.56l-.85,8.75a.92.92,0,0,1-1.07.79Z"/><path class="cls-1" d="M233.3,75.64V81h17.05q1,0,.91.82v9.55a.86.86,0,0,1-.27.59.85.85,0,0,1-.64.29H221.29c-.51,0-.83-.31-1-.95V50a.77.77,0,0,1,.85-.88h28.43a1,1,0,0,1,.72.26.81.81,0,0,1,.29.62v9.42q0,.95-1,.95H233.3v4.91h13.24a.8.8,0,0,1,.61.26.61.61,0,0,1,.18.56l-.85,8.75a.92.92,0,0,1-1.07.79Z"/><path class="cls-1" d="M279.57,49.11h11a.84.84,0,0,1,.95.94V91.32q0,.88-.95.88H279.82a1.52,1.52,0,0,1-1.31-.82L267.64,72V91.32q0,.88-.95.88H255.63a.8.8,0,0,1-.61-.26.88.88,0,0,1-.24-.62V50.05q0-.94.85-.94h10.83a1.41,1.41,0,0,1,1.43.82l10.8,19.4V50.05a.9.9,0,0,1,.29-.66A.84.84,0,0,1,279.57,49.11Z"/><path class="cls-1" d="M347.92,70.61a24.35,24.35,0,0,1-2.77,11.83,19.36,19.36,0,0,1-7.82,7.87,23.83,23.83,0,0,1-11.67,2.77A23.35,23.35,0,0,1,314,90.28a19.31,19.31,0,0,1-7.73-7.91,24.63,24.63,0,0,1-2.73-11.79,24.5,24.5,0,0,1,2.74-11.8,19.29,19.29,0,0,1,7.78-7.88,23.68,23.68,0,0,1,11.68-2.79,23.43,23.43,0,0,1,11.63,2.81,19.41,19.41,0,0,1,7.76,7.92A24.52,24.52,0,0,1,347.92,70.61Zm-13.6,0a12,12,0,0,0-1-5.09,8.23,8.23,0,0,0-3-3.54,8.21,8.21,0,0,0-12,3.45,13.14,13.14,0,0,0,0,10.37,8.28,8.28,0,0,0,3,3.51,8.6,8.6,0,0,0,8.94,0,8.39,8.39,0,0,0,3-3.51A11.89,11.89,0,0,0,334.32,70.64Z"/><path class="cls-1" d="M376.65,49.11h11a.84.84,0,0,1,.95.94V91.32q0,.88-.95.88H376.9a1.52,1.52,0,0,1-1.31-.82L364.73,72V91.32q0,.88-.95.88H352.71a.8.8,0,0,1-.61-.26.88.88,0,0,1-.24-.62V50.05q0-.94.85-.94h10.83a1.41,1.41,0,0,1,1.43.82l10.8,19.4V50.05a.9.9,0,0,1,.29-.66A.84.84,0,0,1,376.65,49.11Z"/><path class="cls-1" d="M69.39,106.55h134a3.59,3.59,0,0,1,2.74,1.1,2.7,2.7,0,0,1,.79,2.44l-3.77,37.85q-.61,3.53-3.89,3.53H162.13V275a3.56,3.56,0,0,1-1,2.37,3.23,3.23,0,0,1-2.5,1.16H114.42a3.5,3.5,0,0,1-2.55-1.1,3.36,3.36,0,0,1-1.1-2.44V151.46H69.39a3.55,3.55,0,0,1-2.37-1,3.22,3.22,0,0,1-1.16-2.5V110.32A3.6,3.6,0,0,1,67,107.71,3.38,3.38,0,0,1,69.39,106.55Z"/><path class="cls-1" d="M330.53,106.55h55.62a2.44,2.44,0,0,1,1.89.73,2.6,2.6,0,0,1,.67,1.83,3.19,3.19,0,0,1-.12,1L331.5,275a4.3,4.3,0,0,1-4.5,3.53H272.23a4.3,4.3,0,0,1-4.5-3.53L210.65,110.08a2.53,2.53,0,0,1,.3-2.44,2.29,2.29,0,0,1,2.25-1.1h55.5a4.45,4.45,0,0,1,4.75,3.53l26.17,102.35,26.17-102.35A4.45,4.45,0,0,1,330.53,106.55Z"/></g></g></svg>